<svg width="658" height="274" viewBox="0 0 658 274" fill="none" xmlns="http://www.w3.org/2000/svg">
<line x1="0.501465" y1="232.228" x2="0.501465" y2="1.52588e-05" stroke="#23A6F0"/>
<line x1="1" y1="231.736" x2="657.016" y2="231.736" stroke="#23A6F0"/>
<path d="M50.7749 179.033C50.7749 179.033 118.467 97.2381 151.317 76.0745C184.167 54.9109 197.606 32.0313 242.402 61.2028C287.198 90.3742 287.198 28.0128 313.578 38.8952C339.958 49.7777 368.329 156.725 399.686 136.705C431.043 116.686 459.912 136.705 459.912 156.725C459.912 176.745 509.685 179.033 516.653 156.725C523.622 134.417 546.02 117.83 566.427 107.534C586.834 97.2381 644.571 97.2381 644.571 97.2381" stroke="#23A6F0"/>
<ellipse cx="258.33" cy="68.0879" rx="2.48867" ry="2.85994" fill="#23A6F0"/>
<path d="M525.113 143.925C525.113 145.505 523.999 146.785 522.625 146.785C521.25 146.785 520.136 145.505 520.136 143.925C520.136 142.346 521.25 141.065 522.625 141.065C523.999 141.065 525.113 142.346 525.113 143.925Z" fill="#23A6F0"/>
<ellipse cx="484.301" cy="171.046" rx="2.48867" ry="2.85994" fill="#23A6F0"/>
<ellipse cx="47.2907" cy="176.766" rx="2.48867" ry="2.85994" fill="#23A6F0"/>
<ellipse cx="194.62" cy="47.4963" rx="2.48867" ry="2.85994" fill="#23A6F0"/>
<ellipse cx="114.982" cy="106.962" rx="2.48867" ry="2.85994" fill="#23A6F0"/>
<ellipse cx="307.108" cy="37.1793" rx="2.48867" ry="2.85994" fill="#23A6F0"/>
<ellipse cx="388.736" cy="138.993" rx="2.48867" ry="2.85994" fill="#23A6F0"/>
<ellipse cx="431.541" cy="129.842" rx="2.48867" ry="2.85994" fill="#23A6F0"/>
<ellipse cx="642.58" cy="97.8101" rx="2.48867" ry="2.85994" fill="#23A6F0"/>
<ellipse cx="460.41" cy="156.153" rx="2.48867" ry="2.85994" fill="#23A6F0"/>
<ellipse cx="307.108" cy="37.1793" rx="2.48867" ry="2.85994" fill="#23A6F0"/>
<path d="M38.2769 261.294V253.867H38.6724V261.294C38.6724 262.021 38.5356 262.639 38.2622 263.147C37.9937 263.65 37.6274 264.031 37.1636 264.29C36.6997 264.548 36.1772 264.678 35.5962 264.678C34.9712 264.678 34.4268 264.565 33.9629 264.341C33.5039 264.116 33.1475 263.777 32.8936 263.323C32.6445 262.864 32.52 262.288 32.52 261.594H32.9155C32.9155 262.17 33.0156 262.659 33.2158 263.059C33.416 263.459 33.7139 263.765 34.1094 263.975C34.5098 264.18 35.0054 264.282 35.5962 264.282C36.0845 264.282 36.5312 264.17 36.9365 263.945C37.3418 263.721 37.6665 263.386 37.9106 262.942C38.1548 262.498 38.2769 261.948 38.2769 261.294ZM44.4731 254.204L40.6206 264.531H40.1885L44.1802 253.867H44.561L44.4731 254.204ZM48.2231 264.531L44.3706 254.204L44.29 253.867H44.6636L48.6553 264.531H48.2231ZM47.0952 260.95V261.345H41.7559V260.95H47.0952ZM58.0596 253.867V264.531H57.6641L50.7793 254.541V264.531H50.3765V253.867H50.7793L57.6641 263.835V253.867H58.0596Z" fill="#23A6F0"/>
<path d="M132.272 253.867V264.531H131.877V253.867H132.272ZM137.736 258.877V259.287H131.987V258.877H137.736ZM138.483 253.867V254.263H131.987V253.867H138.483ZM146.95 264.136V264.531H140.6V264.136H146.95ZM140.856 253.867V264.531H140.461V253.867H140.856ZM146.203 258.848V259.243H140.6V258.848H146.203ZM146.95 253.867V254.263H140.6V253.867H146.95ZM152.553 259.265H149.243L149.228 258.87H151.953C152.597 258.87 153.137 258.787 153.571 258.621C154.011 258.455 154.34 258.201 154.56 257.859C154.78 257.517 154.89 257.087 154.89 256.57C154.89 256.057 154.772 255.63 154.538 255.288C154.309 254.946 153.964 254.69 153.505 254.519C153.051 254.348 152.485 254.263 151.806 254.263H149.396V264.531H149.001V253.867H151.806C152.343 253.867 152.827 253.921 153.256 254.028C153.686 254.136 154.052 254.302 154.355 254.526C154.658 254.751 154.89 255.037 155.051 255.383C155.212 255.725 155.292 256.13 155.292 256.599C155.292 257.039 155.209 257.434 155.043 257.786C154.882 258.137 154.646 258.423 154.333 258.643C154.021 258.862 153.635 258.997 153.176 259.045L152.553 259.265ZM152.48 264.531H149.228L149.353 264.136H152.48C153.081 264.136 153.596 264.036 154.025 263.835C154.46 263.635 154.794 263.347 155.029 262.971C155.263 262.59 155.38 262.136 155.38 261.609C155.38 261.199 155.275 260.815 155.065 260.459C154.86 260.103 154.548 259.814 154.128 259.595C153.708 259.375 153.183 259.265 152.553 259.265H150.825L150.839 258.87H153.366L153.396 259.009C153.845 259.062 154.248 259.211 154.604 259.456C154.965 259.7 155.251 260.01 155.461 260.386C155.671 260.757 155.776 261.16 155.776 261.594C155.776 262.224 155.634 262.759 155.351 263.198C155.073 263.633 154.687 263.965 154.194 264.194C153.701 264.419 153.129 264.531 152.48 264.531Z" fill="#23A6F0"/>
<path d="M430.634 257.299H431.081L435.468 267.385L439.87 257.299H440.31L435.629 267.963H435.314L430.634 257.299ZM430.517 257.299H430.913V262.814V267.963H430.517V257.299ZM440.053 257.299H440.449V267.963H440.053V262.814V257.299ZM446.572 257.636L442.719 267.963H442.287L446.279 257.299H446.66L446.572 257.636ZM450.322 267.963L446.469 257.636L446.389 257.299H446.762L450.754 267.963H450.322ZM449.194 264.382V264.777H443.854V264.382H449.194ZM451.091 257.299L454.782 263.554L458.518 257.299H459.001L454.98 263.913V267.963H454.584V263.913L450.563 257.299H451.091Z" fill="#23A6F0"/>
<path d="M534.02 264.726V257.299H534.415V264.726C534.415 265.453 534.278 266.071 534.005 266.579C533.736 267.082 533.37 267.463 532.906 267.721C532.442 267.98 531.92 268.11 531.339 268.11C530.714 268.11 530.169 267.997 529.706 267.773C529.247 267.548 528.89 267.209 528.636 266.755C528.387 266.296 528.263 265.719 528.263 265.026H528.658C528.658 265.602 528.758 266.091 528.958 266.491C529.159 266.891 529.457 267.197 529.852 267.406C530.252 267.612 530.748 267.714 531.339 267.714C531.827 267.714 532.274 267.602 532.679 267.377C533.084 267.153 533.409 266.818 533.653 266.374C533.897 265.929 534.02 265.38 534.02 264.726ZM544.098 257.299H544.493V264.528C544.493 265.324 544.334 265.988 544.017 266.52C543.7 267.052 543.265 267.45 542.713 267.714C542.167 267.978 541.546 268.11 540.853 268.11C540.16 268.11 539.537 267.978 538.985 267.714C538.438 267.45 538.004 267.052 537.682 266.52C537.364 265.988 537.206 265.324 537.206 264.528V257.299H537.601V264.528C537.601 265.212 537.743 265.793 538.026 266.271C538.314 266.745 538.702 267.104 539.19 267.348C539.684 267.592 540.238 267.714 540.853 267.714C541.468 267.714 542.02 267.592 542.508 267.348C543.001 267.104 543.39 266.745 543.673 266.271C543.956 265.793 544.098 265.212 544.098 264.528V257.299ZM555.003 257.299V267.963H554.608L547.723 257.973V267.963H547.32V257.299H547.723L554.608 267.267V257.299H555.003Z" fill="#23A6F0"/>
<path d="M632.571 264.726V257.299H632.966V264.726C632.966 265.453 632.829 266.071 632.556 266.579C632.287 267.082 631.921 267.463 631.457 267.721C630.993 267.98 630.471 268.11 629.89 268.11C629.265 268.11 628.72 267.997 628.257 267.773C627.798 267.548 627.441 267.209 627.187 266.755C626.938 266.296 626.814 265.719 626.814 265.026H627.209C627.209 265.602 627.309 266.091 627.51 266.491C627.71 266.891 628.008 267.197 628.403 267.406C628.803 267.612 629.299 267.714 629.89 267.714C630.378 267.714 630.825 267.602 631.23 267.377C631.635 267.153 631.96 266.818 632.204 266.374C632.448 265.929 632.571 265.38 632.571 264.726ZM642.649 257.299H643.044V264.528C643.044 265.324 642.885 265.988 642.568 266.52C642.251 267.052 641.816 267.45 641.264 267.714C640.718 267.978 640.097 268.11 639.404 268.11C638.711 268.11 638.088 267.978 637.536 267.714C636.99 267.45 636.555 267.052 636.233 266.52C635.915 265.988 635.757 265.324 635.757 264.528V257.299H636.152V264.528C636.152 265.212 636.294 265.793 636.577 266.271C636.865 266.745 637.253 267.104 637.741 267.348C638.235 267.592 638.789 267.714 639.404 267.714C640.019 267.714 640.571 267.592 641.059 267.348C641.552 267.104 641.941 266.745 642.224 266.271C642.507 265.793 642.649 265.212 642.649 264.528V257.299ZM651.745 267.568V267.963H646.018V267.568H651.745ZM646.274 257.299V267.963H645.871V257.299H646.274Z" fill="#23A6F0"/>
<path d="M335.027 254.204L331.175 264.531H330.743L334.734 253.867H335.115L335.027 254.204ZM338.777 264.531L334.925 254.204L334.844 253.867H335.218L339.209 264.531H338.777ZM337.649 260.95V261.345H332.31V260.95H337.649ZM344.263 260.027H341.026V259.631H344.263C344.981 259.631 345.564 259.514 346.014 259.28C346.463 259.041 346.79 258.721 346.995 258.32C347.205 257.92 347.31 257.478 347.31 256.995C347.31 256.492 347.205 256.035 346.995 255.625C346.79 255.21 346.463 254.88 346.014 254.636C345.564 254.387 344.981 254.263 344.263 254.263H341.326V264.531H340.931V253.867H344.263C345.02 253.867 345.652 253.997 346.16 254.255C346.673 254.514 347.059 254.878 347.317 255.347C347.576 255.811 347.706 256.355 347.706 256.98C347.706 257.605 347.576 258.147 347.317 258.606C347.063 259.06 346.68 259.412 346.167 259.661C345.66 259.905 345.025 260.027 344.263 260.027ZM349.903 253.867H353.301C353.98 253.867 354.583 253.987 355.11 254.226C355.638 254.46 356.05 254.807 356.348 255.266C356.651 255.72 356.802 256.279 356.802 256.943C356.802 257.461 356.69 257.93 356.465 258.35C356.241 258.765 355.94 259.106 355.564 259.375C355.188 259.644 354.769 259.812 354.305 259.88L354.078 259.968H349.998L349.983 259.573H353.66C354.271 259.573 354.778 259.446 355.184 259.192C355.589 258.938 355.894 258.611 356.099 258.21C356.304 257.805 356.407 257.383 356.407 256.943C356.407 256.382 356.28 255.903 356.026 255.508C355.772 255.107 355.411 254.8 354.942 254.585C354.478 254.37 353.931 254.263 353.301 254.263H350.298V264.531H349.903V253.867ZM356.832 264.531L353.909 259.829L354.371 259.814L357.249 264.429V264.531H356.832Z" fill="#23A6F0"/>
<path d="M230.545 253.867H230.992L235.379 263.953L239.781 253.867H240.221L235.541 264.531H235.226L230.545 253.867ZM230.428 253.867H230.824V259.382V264.531H230.428V253.867ZM239.964 253.867H240.36V264.531H239.964V259.382V253.867ZM246.483 254.204L242.63 264.531H242.198L246.19 253.867H246.571L246.483 254.204ZM250.233 264.531L246.38 254.204L246.3 253.867H246.673L250.665 264.531H250.233ZM249.105 260.95V261.345H243.766V260.95H249.105ZM252.35 253.867H255.748C256.427 253.867 257.03 253.987 257.557 254.226C258.084 254.46 258.497 254.807 258.795 255.266C259.098 255.72 259.249 256.279 259.249 256.943C259.249 257.461 259.137 257.93 258.912 258.35C258.688 258.765 258.387 259.106 258.011 259.375C257.635 259.644 257.215 259.812 256.751 259.88L256.524 259.968H252.445L252.43 259.573H256.107C256.717 259.573 257.225 259.446 257.63 259.192C258.036 258.938 258.341 258.611 258.546 258.21C258.751 257.805 258.854 257.383 258.854 256.943C258.854 256.382 258.727 255.903 258.473 255.508C258.219 255.107 257.857 254.8 257.389 254.585C256.925 254.37 256.378 254.263 255.748 254.263H252.745V264.531H252.35V253.867ZM259.278 264.531L256.356 259.829L256.817 259.814L259.696 264.429V264.531H259.278Z" fill="#23A6F0"/>
</svg>
