<svg width="49" height="38" viewBox="0 0 49 38" fill="none" xmlns="http://www.w3.org/2000/svg">
<path fill-rule="evenodd" clip-rule="evenodd" d="M46.4167 37.6667C46.4167 37.6667 49.5001 37.6667 49.5001 34.5556C49.5001 31.4445 46.4167 22.1112 34.0834 22.1112C21.7501 22.1112 18.6667 31.4445 18.6667 34.5556C18.6667 37.6667 21.7501 37.6667 21.7501 37.6667H46.4167ZM21.8179 34.5556H46.3489C46.3634 34.5539 46.3777 34.5518 46.3921 34.5494L46.4167 34.5432C46.4106 33.7218 45.9018 31.3387 44.0734 29.192C42.3714 27.1791 39.3806 25.2223 34.0834 25.2223C28.7893 25.2223 25.7985 27.1823 24.0934 29.192C22.265 31.3387 21.7532 33.7249 21.7501 34.5432C21.7726 34.5475 21.7953 34.5517 21.8179 34.5556ZM34.0834 15.8889C35.7189 15.8889 37.2874 15.2334 38.4439 14.0665C39.6004 12.8996 40.2501 11.3169 40.2501 9.66671C40.2501 8.01647 39.6004 6.43382 38.4439 5.26693C37.2874 4.10004 35.7189 3.44448 34.0834 3.44448C32.4479 3.44448 30.8794 4.10004 29.7229 5.26693C28.5664 6.43382 27.9167 8.01647 27.9167 9.66671C27.9167 11.3169 28.5664 12.8996 29.7229 14.0665C30.8794 15.2334 32.4479 15.8889 34.0834 15.8889ZM43.3334 9.66671C43.3334 10.8924 43.0942 12.106 42.6293 13.2384C42.1644 14.3708 41.4831 15.3997 40.6242 16.2664C39.7652 17.133 38.7455 17.8205 37.6232 18.2896C36.501 18.7586 35.2981 19 34.0834 19C32.8687 19 31.6659 18.7586 30.5436 18.2896C29.4213 17.8205 28.4016 17.133 27.5427 16.2664C26.6837 15.3997 26.0024 14.3708 25.5375 13.2384C25.0727 12.106 24.8334 10.8924 24.8334 9.66671C24.8334 7.19135 25.808 4.81738 27.5427 3.06704C29.2774 1.3167 31.6302 0.333374 34.0834 0.333374C36.5367 0.333374 38.8894 1.3167 40.6242 3.06704C42.3589 4.81738 43.3334 7.19135 43.3334 9.66671ZM21.5527 22.9823C20.3194 22.5904 19.048 22.3328 17.7602 22.2138C17.0367 22.1444 16.3102 22.1101 15.5834 22.1112C3.25008 22.1112 0.166748 31.4445 0.166748 34.5556C0.166748 36.6307 1.1935 37.6667 3.25008 37.6667H16.2494C15.7923 36.6955 15.5644 35.6306 15.5834 34.5556C15.5834 31.4134 16.7458 28.2027 18.9442 25.5209C19.6935 24.6063 20.5661 23.7507 21.5527 22.9823ZM15.3367 25.2223C10.1937 25.2845 7.27383 27.2134 5.59341 29.192C3.75266 31.3512 3.25008 33.7436 3.25008 34.5556H12.5001C12.5001 31.3045 13.496 28.0658 15.3367 25.2223ZM4.79175 11.2223C4.79175 8.74691 5.7663 6.37294 7.50101 4.6226C9.23572 2.87226 11.5885 1.88893 14.0417 1.88893C16.495 1.88893 18.8478 2.87226 20.5825 4.6226C22.3172 6.37294 23.2917 8.74691 23.2917 11.2223C23.2917 13.6976 22.3172 16.0716 20.5825 17.8219C18.8478 19.5723 16.495 20.5556 14.0417 20.5556C11.5885 20.5556 9.23572 19.5723 7.50101 17.8219C5.7663 16.0716 4.79175 13.6976 4.79175 11.2223ZM14.0417 5.00004C12.4062 5.00004 10.8377 5.65559 9.68126 6.82249C8.52478 7.98938 7.87508 9.57203 7.87508 11.2223C7.87508 12.8725 8.52478 14.4551 9.68126 15.622C10.8377 16.7889 12.4062 17.4445 14.0417 17.4445C15.6772 17.4445 17.2458 16.7889 18.4022 15.622C19.5587 14.4551 20.2084 12.8725 20.2084 11.2223C20.2084 9.57203 19.5587 7.98938 18.4022 6.82249C17.2458 5.65559 15.6772 5.00004 14.0417 5.00004Z" fill="#23A6F0"/>
</svg>
