<svg width="22" height="18" viewBox="0 0 22 18" fill="none" xmlns="http://www.w3.org/2000/svg">
<path d="M19 7H15.5C15.2239 7 15 7.22386 15 7.5V11.5C15 11.7761 15.2239 12 15.5 12H19M19 7H20.5C20.7761 7 21 7.22386 21 7.5V11.5C21 11.7761 20.7761 12 20.5 12H19M19 7V4.2C19 3.0799 19 2.51984 18.782 2.09202C18.5903 1.71569 18.2843 1.40973 17.908 1.21799C17.4802 1 16.9201 1 15.8 1H4.2C3.0799 1 2.51984 1 2.09202 1.21799C1.71569 1.40973 1.40973 1.71569 1.21799 2.09202C1 2.51984 1 3.07989 1 4.2V13.8C1 14.9201 1 15.4802 1.21799 15.908C1.40973 16.2843 1.71569 16.5903 2.09202 16.782C2.51984 17 3.07989 17 4.2 17H15.8C16.9201 17 17.4802 17 17.908 16.782C18.2843 16.5903 18.5903 16.2843 18.782 15.908C19 15.4802 19 14.9201 19 13.8V12" stroke="black" stroke-width="2"/>
</svg>
